<svg width="300" height="296" viewBox="0 0 300 296" fill="none" xmlns="http://www.w3.org/2000/svg">
<rect width="300" height="295.082" rx="60" fill="black"/>
<path d="M90.6211 91.7891C93.293 91.7891 95.7891 92.2812 98.1094 93.2656C100.43 94.25 102.434 95.6211 104.121 97.3789C105.809 99.0664 107.145 101.07 108.129 103.391C109.113 105.711 109.605 108.172 109.605 110.773C109.605 113.445 109.113 115.941 108.129 118.262C107.145 120.582 105.809 122.586 104.121 124.273C102.434 125.961 100.43 127.297 98.1094 128.281C95.7891 129.266 93.293 129.758 90.6211 129.758C87.9492 129.758 85.4531 129.266 83.1328 128.281C80.8828 127.297 78.8789 125.961 77.1211 124.273C75.4336 122.586 74.0977 120.582 73.1133 118.262C72.1289 115.941 71.6367 113.445 71.6367 110.773C71.6367 108.172 72.1289 105.711 73.1133 103.391C74.0977 101.07 75.4336 99.0664 77.1211 97.3789C78.8789 95.6211 80.8828 94.25 83.1328 93.2656C85.4531 92.2812 87.9492 91.7891 90.6211 91.7891ZM90.6211 164.457C93.293 164.457 95.7891 164.949 98.1094 165.934C100.43 166.918 102.434 168.254 104.121 169.941C105.809 171.629 107.145 173.633 108.129 175.953C109.113 178.273 109.605 180.734 109.605 183.336C109.605 186.008 109.113 188.504 108.129 190.824C107.145 193.145 105.809 195.184 104.121 196.941C102.434 198.629 100.43 199.965 98.1094 200.949C95.7891 201.934 93.293 202.426 90.6211 202.426C87.9492 202.426 85.4531 201.934 83.1328 200.949C80.8828 199.965 78.8789 198.629 77.1211 196.941C75.4336 195.184 74.0977 193.145 73.1133 190.824C72.1289 188.504 71.6367 186.008 71.6367 183.336C71.6367 180.734 72.1289 178.273 73.1133 175.953C74.0977 173.633 75.4336 171.629 77.1211 169.941C78.8789 168.254 80.8828 166.918 83.1328 165.934C85.4531 164.949 87.9492 164.457 90.6211 164.457Z" fill="#C9C5C1"/>
<path d="M261.059 144.523C261.059 154.367 259.652 162.875 256.84 170.047C254.098 177.219 250.23 183.195 245.238 187.977C240.316 192.688 234.48 196.203 227.73 198.523C220.98 200.773 213.633 201.898 205.688 201.898C203.016 201.898 200.344 201.723 197.672 201.371C195 201.02 192.574 200.562 190.395 200V241.871H164.66V92.8438H186.914L187.547 108.664C189.727 105.922 191.977 103.426 194.297 101.176C196.688 98.9258 199.254 97.0273 201.996 95.4805C204.738 93.8633 207.691 92.6328 210.855 91.7891C214.02 90.9453 217.57 90.5234 221.508 90.5234C227.836 90.5234 233.461 91.7891 238.383 94.3203C243.305 96.8516 247.418 100.473 250.723 105.184C254.098 109.824 256.664 115.484 258.422 122.164C260.18 128.773 261.059 136.227 261.059 144.523ZM234.059 145.578C234.059 139.672 233.637 134.645 232.793 130.496C231.949 126.348 230.719 122.938 229.102 120.266C227.555 117.594 225.621 115.66 223.301 114.465C221.051 113.199 218.449 112.566 215.496 112.566C211.137 112.566 206.953 114.324 202.945 117.84C199.008 121.355 194.824 126.137 190.395 132.184V179.012C192.434 179.785 194.93 180.418 197.883 180.91C200.906 181.402 203.965 181.648 207.059 181.648C211.137 181.648 214.828 180.805 218.133 179.117C221.508 177.43 224.355 175.039 226.676 171.945C229.066 168.852 230.895 165.09 232.16 160.66C233.426 156.16 234.059 151.133 234.059 145.578Z" fill="#D14330"/>
</svg>
